# xmcd
#
# Track frame offsets:
#	150
#	14463
#	27941
#	40645
#	54496
#	70280
#	89546
#	103140
#	120764
#	134083
#	148970
#	163159
#
# Disc length: 2444 seconds
# Revision: 0
# Processed by: cddbd v1.5.2PL0 Copyright (c) Steve Scherf et al.
# Submitted via: dBpowerAMP V12.0
#
DISCID=aa098a0c
DTITLE=Sarah Lee Guthrie and Johnny Irion - Bright Examples
DYEAR=2011
DGENRE=Folk
TTITLE0=Ahead of Myself
TTITLE1=Never Far from My Heart
TTITLE2=Speed of Light
TTITLE3=Seven Sisters
TTITLE4=Target on Your Heart
TTITLE5=Hurry Up and Wait
TTITLE6=Dupont Circle
TTITLE7=Butterflies
TTITLE8=First Snow
TTITLE9=Cry Quieter
TTITLE10=Company I'm Keepin
TTITLE11=Bright Examples
EXTD=
EXTT0=
EXTT1=
EXTT2=
EXTT3=
EXTT4=
EXTT5=
EXTT6=
EXTT7=
EXTT8=
EXTT9=
EXTT10=
EXTT11=
PLAYORDER=
